<?xml version="1.0" encoding="UTF-8"?><svg id="Ebene_2" xmlns="http://www.w3.org/2000/svg" xmlns:xlink="http://www.w3.org/1999/xlink" viewBox="0 0 180 180"><defs><style>.cls-1{fill:url(#Unbenannter_Verlauf_17);}.cls-1,.cls-2{stroke-width:0px;}.cls-2{fill:#fff;}</style><linearGradient id="Unbenannter_Verlauf_17" x1="-629.06" y1="23.45" x2="-716.91" y2="-125.86" gradientTransform="translate(764.6 139.3) rotate(-.35)" gradientUnits="userSpaceOnUse"><stop offset="0" stop-color="#182c62" stop-opacity=".6"/><stop offset="1" stop-color="#036fea"/></linearGradient></defs><g id="Ebene_1-2"><path class="cls-2" d="M89.45,0C39.74.3-.3,40.84,0,90.55s40.84,89.75,90.55,89.45c49.71-.3,89.75-40.84,89.45-90.55C179.7,39.74,139.16-.3,89.45,0ZM90,145c-30.38,0-55-24.62-55-55s24.62-55,55-55,55,24.62,55,55-24.62,55-55,55Z"/><path class="cls-1" d="M89.45,0C39.74.3-.3,40.84,0,90.55c.3,49.71,40.84,89.75,90.55,89.45,49.71-.3,89.75-40.84,89.45-90.55S139.16-.3,89.45,0ZM90,145c-30.38,0-55-24.62-55-55s24.62-55,55-55,55,24.62,55,55-24.62,55-55,55Z"/></g></svg>