<?xml version="1.0" encoding="UTF-8"?>
<svg width="28px" height="28px" id="Ebene_2" xmlns="http://www.w3.org/2000/svg"
  viewBox="0 0 164.18 79.37">
  <defs>
    <style>.cls-1{fill:#000;stroke-width:0px;}</style>
  </defs>
  <g id="Ebene_1-2">
    <path class="cls-1"
      d="M119.73,72.31c1.45,1.35,3.05,2.53,4.76,3.52-6.1,3.52-13.35,4.46-20.14,2.62-6.79-1.84-12.58-6.31-16.06-12.43-3.49-6.11-4.4-13.37-2.52-20.15,1.88-6.79,6.38-12.55,12.51-16,.22,1.86.65,3.69,1.3,5.45,2.15,6.01,6.38,11.04,11.93,14.18-.16,1.13-.24,2.27-.24,3.41,0,7.36,3.06,14.39,8.47,19.39h0ZM150.72,29.87c-.22,1.86-.65,3.69-1.3,5.45-2.15,6.01-6.38,11.04-11.93,14.18.16,1.13.24,2.27.24,3.41,0,7.36-3.06,14.39-8.47,19.39-1.45,1.35-3.05,2.53-4.76,3.52,6.1,3.52,13.35,4.46,20.14,2.62,6.79-1.84,12.58-6.31,16.06-12.43,3.49-6.11,4.4-13.37,2.52-20.15-1.88-6.79-6.38-12.55-12.51-16h0ZM144.63,32.94c-2.22-.79-4.55-1.19-6.91-1.19-2.91,0-5.8.6-8.47,1.77,3.13,2.9,5.5,6.51,6.93,10.53,4-2.63,6.98-6.55,8.44-11.11h0ZM132.41,51.7c-5.15,1.62-10.67,1.62-15.82,0-.03.4-.03.82-.03,1.22,0,6.42,2.92,12.49,7.94,16.48,5.02-4,7.94-10.07,7.94-16.48,0-.4,0-.82-.03-1.22h0ZM124.5,47.62c2.35,0,4.69-.4,6.91-1.19-1.26-3.95-3.66-7.43-6.91-10-3.24,2.57-5.65,6.06-6.91,10,2.22.79,4.55,1.19,6.91,1.19ZM111.27,31.75c-2.35,0-4.69.4-6.91,1.19,1.46,4.56,4.44,8.48,8.44,11.11,1.43-4.02,3.81-7.63,6.93-10.53-2.67-1.17-5.55-1.78-8.47-1.77h0ZM111.27,26.46c4.64,0,9.21,1.22,13.23,3.55,4.02-2.32,8.59-3.55,13.23-3.55,2.69,0,5.35.41,7.91,1.22,1.77.55,3.47,1.29,5.08,2.2.16-1.13.24-2.27.24-3.41,0-9.45-5.04-18.19-13.23-22.91-8.19-4.73-18.27-4.73-26.46,0-8.19,4.73-13.23,13.46-13.23,22.91,0,1.14.08,2.28.24,3.41,1.61-.91,3.31-1.64,5.08-2.2,2.56-.81,5.23-1.22,7.91-1.22h0Z" />
    <path class="cls-1"
      d="M15.33,34.64c-.96.48-2.88.96-5.34.96-5.7,0-9.99-3.6-9.99-10.23s4.29-10.62,10.56-10.62c2.52,0,4.11.54,4.8.9l-.63,2.13c-.99-.48-2.4-.84-4.08-.84-4.74,0-7.89,3.03-7.89,8.34,0,4.95,2.85,8.13,7.77,8.13,1.59,0,3.21-.33,4.26-.84l.54,2.07Z" />
    <path class="cls-1"
      d="M31.32,27.92c0,5.37-3.72,7.71-7.23,7.71-3.93,0-6.96-2.88-6.96-7.47,0-4.86,3.18-7.71,7.2-7.71s6.99,3.03,6.99,7.47ZM19.8,28.07c0,3.18,1.83,5.58,4.41,5.58s4.41-2.37,4.41-5.64c0-2.46-1.23-5.58-4.35-5.58s-4.47,2.88-4.47,5.64Z" />
    <path class="cls-1" d="M34.65,14h2.64v21.3h-2.64V14Z" />
    <path class="cls-1"
      d="M54.87,27.92c0,5.37-3.72,7.71-7.23,7.71-3.93,0-6.96-2.88-6.96-7.47,0-4.86,3.18-7.71,7.2-7.71s6.99,3.03,6.99,7.47ZM43.35,28.07c0,3.18,1.83,5.58,4.41,5.58s4.41-2.37,4.41-5.64c0-2.46-1.23-5.58-4.35-5.58s-4.47,2.88-4.47,5.64Z" />
    <path class="cls-1"
      d="M58.2,25.31c0-1.71-.03-3.18-.12-4.53h2.31l.09,2.85h.12c.66-1.95,2.25-3.18,4.02-3.18.3,0,.51.03.75.09v2.49c-.27-.06-.54-.09-.9-.09-1.86,0-3.18,1.41-3.54,3.39-.06.36-.12.78-.12,1.23v7.74h-2.61v-9.99Z" />
    <path class="cls-1"
      d="M20.47,55.82c-.16-3.01-.35-6.62-.32-9.31h-.1c-.74,2.53-1.63,5.21-2.72,8.19l-3.81,10.46h-2.11l-3.49-10.27c-1.02-3.04-1.89-5.82-2.5-8.38h-.06c-.06,2.69-.22,6.3-.42,9.54l-.58,9.25H1.72l1.5-21.57h3.55l3.68,10.43c.9,2.66,1.63,5.02,2.18,7.26h.1c.54-2.18,1.31-4.54,2.27-7.26l3.84-10.43h3.55l1.34,21.57h-2.72l-.54-9.47Z" />
    <path class="cls-1"
      d="M39.9,65.3l-.22-1.95h-.1c-.86,1.22-2.53,2.3-4.74,2.3-3.14,0-4.74-2.21-4.74-4.45,0-3.74,3.33-5.79,9.31-5.76v-.32c0-1.28-.35-3.58-3.52-3.58-1.44,0-2.94.45-4.03,1.15l-.64-1.86c1.28-.83,3.14-1.38,5.09-1.38,4.74,0,5.89,3.23,5.89,6.34v5.79c0,1.34.06,2.66.26,3.71h-2.56ZM39.48,57.39c-3.07-.06-6.56.48-6.56,3.49,0,1.82,1.22,2.69,2.66,2.69,2.02,0,3.3-1.28,3.74-2.59.1-.29.16-.61.16-.9v-2.69Z" />
    <path class="cls-1"
      d="M49.95,54.86c0-1.98-.06-3.58-.13-5.06h2.53l.13,2.66h.06c1.15-1.89,2.98-3.01,5.5-3.01,3.74,0,6.56,3.17,6.56,7.87,0,5.57-3.39,8.32-7.04,8.32-2.05,0-3.84-.9-4.77-2.43h-.06v8.42h-2.78v-16.77ZM52.73,58.99c0,.42.06.8.13,1.15.51,1.95,2.21,3.3,4.22,3.3,2.98,0,4.7-2.43,4.7-5.98,0-3.1-1.63-5.76-4.61-5.76-1.92,0-3.71,1.38-4.26,3.49-.1.35-.19.77-.19,1.15v2.66Z" />
  </g>
</svg>
