<?xml version="1.0" encoding="UTF-8"?>
<svg width="28px" height="28px" version="1.1" viewBox="0 0 512 512"
  xmlns="http://www.w3.org/2000/svg">
  <path
    d="m227.2 453.28c8.7617 8.1602 18.422 15.301 28.801 21.281-36.859 21.281-80.703 27-121.8 15.859-41.078-11.121-76.043-38.16-97.141-75.141-21.102-36.98-26.578-80.84-15.262-121.86 11.34-41.039 38.559-75.879 75.637-96.777 1.3008 11.262 3.9414 22.32 7.8398 32.961 13 36.32 38.602 66.758 72.16 85.762-0.96094 6.8398-1.4414 13.738-1.4414 20.641-0.039063 44.52 18.52 87.039 51.199 117.28zm187.36-256.64c-1.3008 11.262-3.9414 22.32-7.8398 32.961-13 36.32-38.602 66.758-72.16 85.762 0.96094 6.8398 1.4414 13.738 1.4414 20.641 0.039062 44.52-18.52 87.039-51.199 117.28-8.7617 8.1602-18.422 15.301-28.801 21.281 36.859 21.281 80.703 27 121.8 15.859 41.078-11.121 76.043-38.16 97.141-75.141 21.102-36.98 26.578-80.84 15.262-121.86-11.34-41.039-38.559-75.879-75.637-96.777zm-36.801 18.559c-13.398-4.7617-27.539-7.1992-41.758-7.1992-17.621-0.019532-35.059 3.6406-51.199 10.719 18.898 17.539 33.281 39.379 41.922 63.684 24.199-15.898 42.219-39.621 51.039-67.199zm-73.922 113.44c-31.141 9.8203-64.539 9.8203-95.684 0-0.16016 2.3984-0.16016 4.9609-0.16016 7.3594-0.039063 38.801 17.641 75.52 48 99.68 30.359-24.16 48.039-60.883 48-99.68 0-2.3984 0-4.9609-0.16016-7.3594zm-47.84-24.641c14.219 0 28.359-2.4414 41.758-7.1992-7.6016-23.859-22.141-44.918-41.758-60.477-19.621 15.559-34.16 36.621-41.758 60.477 13.398 4.7617 27.539 7.1992 41.758 7.1992zm-80-96c-14.219 0-28.359 2.4414-41.758 7.1992 8.8203 27.578 26.84 51.301 51.039 67.199 8.6406-24.301 23.02-46.141 41.922-63.684-16.141-7.0781-33.578-10.738-51.199-10.719zm0-32c28.082-0.019532 55.68 7.3789 80 21.441 24.32-14.059 51.922-21.461 80-21.441 16.238-0.019532 32.359 2.4609 47.84 7.3594 10.68 3.3398 20.98 7.7812 30.719 13.281 0.96094-6.8398 1.4414-13.738 1.4414-20.641 0-57.16-30.5-109.98-80-138.56-49.5-28.578-110.5-28.578-160 0s-80 81.398-80 138.56c0 6.8984 0.48047 13.801 1.4414 20.641 9.7383-5.5 20.039-9.9414 30.719-13.281 15.48-4.8984 31.602-7.3789 47.84-7.3594z" />
</svg>
